<?xml version="1.0" encoding="utf-8" ?><svg xmlns="http://www.w3.org/2000/svg" xmlns:xlink="http://www.w3.org/1999/xlink" width="426" height="240" viewBox="0 0 426 240"><path fill="white" d="M0 0L426 0L426 240L0 240L0 0Z"/><path fill="#A77C00" d="M209.606 11.1128C214.41 10.9854 219.123 11.6014 223.594 13.4174C232.387 16.989 240.689 24.7997 244.381 33.6016C245.846 33.1864 247.359 32.9815 248.874 32.8447C257.622 32.0155 266.34 34.7066 273.099 40.3224C279.505 45.6687 284.01 53.7172 284.744 62.0735C285.548 71.2156 283.108 80.0091 277.142 87.0581C271.527 93.7482 263.466 97.9105 254.76 98.6153C246.859 99.2566 237.928 97.0921 231.802 91.873C222.544 97.5202 216.722 99.2038 205.905 98.3911C199.541 97.0431 193.16 94.6324 188.379 90.0613C185.527 92.4803 182.385 94.5499 178.941 96.0249C170.747 99.5272 161.492 99.6079 153.238 96.2492C145.217 92.9696 138.818 86.6522 135.436 78.6742C131.961 70.4457 131.936 61.1662 135.367 52.9192C138.768 44.856 145.212 38.4599 153.301 35.1194C160.49 32.1487 169.93 31.6867 177.188 34.6987C179.038 30.4689 181.566 26.5696 184.673 23.1549C191.209 15.9286 199.865 11.6018 209.606 11.1128Z"/><path fill="#A77C00" d="M188.165 98.2364C188.755 98.0705 190.606 99.451 191.188 99.7736C194.716 101.731 198.826 103.747 202.831 104.393C209.873 105.584 217.095 105.123 223.929 103.048C225.267 102.644 231.302 99.5403 231.675 99.5909C232.95 99.7641 235.662 101.777 237.076 102.402C241.67 104.43 246.825 104.872 251.776 105.088L251.781 145.69C247.746 145.849 243.665 145.726 239.625 145.726L169.795 145.711C169.865 132.106 169.85 118.501 169.753 104.896C176.495 104.537 182.528 101.741 188.165 98.2364Z"/><path fill="#A77C00" d="M389.806 232.632C397.439 232.362 405.119 232.51 412.755 232.521L412.765 236.68C393.927 237.179 374.996 236.86 356.151 236.873L263.676 236.998L34.625 237.512C27.1405 237.504 19.5258 237.229 12.0592 237.726L11.984 233.529C29.2902 233.804 46.6468 233.522 63.9571 233.506L166.965 233.294L389.806 232.632Z"/><path d="M99.8015 173.759C107.403 174.718 115.287 173.155 122.909 174.443C128.295 175.352 133.678 177.752 136.902 182.33C140.547 187.504 141.144 194.483 140.068 200.564C139.051 206.305 136.457 210.713 131.658 214.053C129.464 215.35 127.03 216.379 124.527 216.886C120.978 217.605 103.478 217.958 100.065 217.252C99.7017 216.749 99.5631 216.408 99.4917 215.791C100.42 214.015 103.111 215.289 104.499 214.057C105.052 212.876 105.136 180.333 104.609 177.83C104.142 175.611 101.568 177.129 100.144 176.224C99.6387 175.366 99.7808 174.723 99.8015 173.759Z"/><path fill="white" d="M111.082 176.591C116.783 176.62 123.156 176.275 127.804 180.193C131.545 183.346 132.905 188.176 133.297 192.884C133.79 198.809 132.944 205.278 129.001 209.941C128.946 209.999 128.889 210.057 128.832 210.113C123.988 214.861 117.381 214.745 111.065 214.649L111.082 176.591Z"/><path d="M49.8766 185.597C50.3516 185.521 50.8208 185.478 51.3021 185.467C54.3325 185.398 57.4551 185.466 59.7608 187.741C60.8963 188.861 61.5635 190.316 61.9373 191.849C63.152 196.832 62.479 208.97 62.5242 214.735C63.7014 214.763 65.9137 214.588 66.8482 215.297C66.9246 215.973 66.8864 216.491 66.7506 217.155C65.8144 217.888 58.7343 217.446 57.0619 217.417C56.9122 216.127 56.8137 214.836 56.7177 213.542C53.0405 215.975 48.4022 219.062 43.7447 218.211C41.1901 217.744 39.4178 216.112 38.0089 214.035C37.7543 213.474 37.5096 212.904 37.356 212.306C36.798 210.137 36.8065 207.776 37.9958 205.816C41.2149 200.509 51.0856 199.105 56.7156 197.744C56.7238 196.785 56.7005 195.826 56.6456 194.868C56.5403 193.025 56.1243 190.972 54.6553 189.71C52.3919 187.766 48.3075 188.476 45.5712 188.722C45.4446 190.737 45.5048 192.792 45.489 194.813C43.904 194.814 40.3375 195.177 39.0346 194.172C38.6113 193.846 38.4919 193.505 38.444 192.984C38.3425 191.88 39.3909 190.151 40.064 189.334C42.3895 186.51 46.4609 185.94 49.8766 185.597Z"/><path fill="white" d="M56.2815 200.089L56.483 200.112C57.0938 201.275 56.691 209.522 56.6869 211.432C54.7588 212.874 52.3815 214.116 50.0003 214.566C48.1501 214.916 46.8504 214.752 45.2979 213.694C44.4391 212.696 43.7505 211.526 43.4222 210.244C43.0598 208.828 43.2769 207.427 44.0341 206.18C46.3037 202.442 52.3433 201.015 56.2815 200.089Z"/><path d="M260.27 185.6C260.886 185.526 261.503 185.476 262.123 185.452C264.975 185.363 268.077 185.567 270.249 187.658C271.459 188.822 272.153 190.356 272.504 191.98C273.143 194.935 272.83 198.314 272.814 201.327C272.776 205.78 272.774 210.234 272.807 214.688C273.966 214.743 276.306 214.603 277.18 215.402C277.233 216.064 277.309 216.628 277.046 217.26C275.336 217.902 269.998 217.489 267.942 217.484C267.583 216.188 267.314 214.875 267.036 213.561C266.428 213.984 265.811 214.395 265.186 214.794C261.918 216.895 257.846 219.039 253.83 218.114C251.533 217.585 249.824 216.123 248.604 214.157C248.248 213.363 247.98 212.469 247.782 211.619C247.307 209.584 247.52 207.342 248.657 205.557C251.829 200.579 261.596 199.064 267.038 197.866C267.065 196.68 267.057 195.493 267.013 194.308C266.942 192.656 266.501 190.836 265.217 189.696C263.092 187.81 258.984 188.486 256.344 188.595C256.208 190.676 256.238 192.79 256.198 194.876C254.163 194.695 251.85 195.101 249.906 194.425C249.43 193.975 249.322 193.813 249.255 193.147C249.123 191.827 249.525 190.383 250.373 189.359C252.606 186.659 256.988 185.918 260.27 185.6Z"/><path fill="white" d="M266.758 200.146C267.487 201.229 267.025 209.7 267.016 211.574C265.068 212.877 262.848 214.09 260.525 214.536C258.643 214.898 257.199 214.671 255.613 213.604C254.81 212.563 254.232 211.529 253.931 210.242C253.591 208.783 253.778 207.433 254.586 206.162C256.952 202.442 262.747 201.063 266.758 200.146Z"/><path d="M316.462 185.586L316.825 185.551C320.131 185.249 323.771 185.576 326.396 187.819C330.211 191.08 330.376 195.903 330.76 200.507C323.589 200.735 316.358 200.221 309.2 200.705C309.279 203.387 309.811 206.208 310.951 208.648C312.116 211.141 314.023 213.165 316.656 214.092C320.615 215.485 324.24 214.144 327.787 212.399C328.644 211.98 329.356 211.253 330.317 211.075C330.782 211.74 330.643 213.467 330.731 214.343C327.676 215.972 324.428 217.578 320.977 218.12C316.899 218.76 312.443 217.957 309.088 215.477C305.951 213.159 304.006 209.474 303.444 205.653C302.728 200.773 303.474 195.279 306.502 191.264C309.047 187.888 312.328 186.176 316.462 185.586Z"/><path fill="white" d="M316.085 188.537C317.453 188.432 318.836 188.518 320.206 188.56C320.858 188.978 321.457 189.426 322.013 189.967C324.262 192.153 324.258 194.862 324.28 197.777L318.185 197.802C315.308 197.793 312.432 197.767 309.555 197.722C309.831 196.104 310.174 194.415 310.891 192.927C312.014 190.597 313.71 189.389 316.085 188.537Z"/><path d="M158.789 185.581C159.074 185.527 159.36 185.511 159.649 185.493C162.96 185.29 166.286 185.711 168.853 188.025C172.578 191.382 172.794 195.846 172.996 200.493C165.912 200.758 158.792 200.444 151.7 200.637C151.706 203.346 152.122 206.155 153.266 208.629C154.433 211.153 156.445 213.15 159.087 214.08C163.059 215.476 166.585 214.072 170.151 212.381C170.941 211.911 171.792 211.293 172.696 211.102L172.933 211.417C172.804 212.394 173.106 213.634 172.714 214.463C170.255 216.353 166.132 217.662 163.088 218.143C159.097 218.774 154.775 217.866 151.5 215.469C148.425 213.219 146.453 209.715 145.881 205.97C145.107 200.902 145.805 195.316 148.936 191.131C151.402 187.836 154.78 186.158 158.789 185.581Z"/><path fill="white" d="M158.643 188.53C158.858 188.514 159.073 188.503 159.288 188.497C161.288 188.433 162.969 188.48 164.507 189.976C166.555 191.969 166.738 195.11 166.807 197.791L160.122 197.801C157.33 197.804 154.535 197.74 151.744 197.707C152.191 195.908 152.62 193.98 153.526 192.35C154.697 190.245 156.36 189.158 158.643 188.53Z"/><path d="M400.811 185.584C401.132 185.533 401.456 185.497 401.781 185.478C405.094 185.28 408.42 185.824 410.94 188.156C414.551 191.498 414.847 195.911 414.993 200.49C407.894 200.767 400.757 200.436 393.649 200.64C393.73 203.393 394.069 206.135 395.256 208.653C396.442 211.168 398.439 213.154 401.084 214.083C405.06 215.478 408.59 214.064 412.161 212.375L415.12 210.751C414.925 212.038 415.163 213.402 414.339 214.497C412.902 216.405 407.437 217.778 405.057 218.135C400.998 218.743 396.783 217.915 393.455 215.447C390.261 213.079 388.356 209.514 387.81 205.609C387.109 200.607 387.843 195.152 390.963 191.05C393.454 187.775 396.793 186.131 400.811 185.584Z"/><path fill="white" d="M400.332 188.539C400.656 188.516 400.98 188.5 401.305 188.49C403.28 188.424 404.978 188.528 406.494 189.99C408.567 191.989 408.733 195.095 408.771 197.79L402.52 197.8L393.766 197.723C394.093 196.101 394.523 194.353 395.254 192.864C396.368 190.595 397.975 189.353 400.332 188.539Z"/><path d="M1.83937 173.896C6.74006 174.279 13.6508 173.21 18.1898 174.11L18.3984 174.424C18.434 175.096 18.5816 175.601 18.2277 176.189C16.9055 176.743 15.0433 176.591 13.5879 176.729C13.0878 181.471 13.3671 186.476 13.3646 191.243C13.3295 199.043 13.3509 206.843 13.4288 214.643C18.3959 214.573 23.7432 215.223 28.6409 214.427C29.2684 211.608 29.4335 208.602 29.5653 205.722C30.8593 205.753 32.2399 205.224 33.3465 206.009L33.4264 207.187C33.4049 210.606 33.423 214.025 33.4807 217.443C30.0044 217.461 2.85597 217.777 1.97538 217.29C1.7452 216.743 1.77287 216.242 1.77402 215.661C2.77775 213.886 5.15961 215.463 6.64964 214.084C6.91502 213.673 7.0223 213.301 7.05133 212.814C7.49313 205.404 7.07664 197.731 7.07519 190.295C7.07459 187.23 7.57217 181.409 6.99949 178.695C6.25645 175.173 4.03512 177.452 2.19974 176.22C1.73503 175.384 1.8352 174.825 1.83937 173.896Z"/><path d="M345.327 185.582C348.577 184.977 352.499 185.943 355.72 186.458C355.702 189.104 355.716 191.75 355.76 194.396C354.726 194.289 353.668 194.33 352.63 194.327C352.592 193.456 352.587 192.534 352.417 191.679C352.212 190.639 351.629 189.708 350.737 189.121C348.855 187.881 345.601 188.475 343.503 188.863C343.308 189.056 343.12 189.255 342.939 189.461C342.069 190.456 341.326 191.845 341.442 193.207C341.827 197.76 351.066 200.009 354.254 202.836C355.697 204.116 356.569 205.731 356.659 207.677C356.785 210.432 356.333 212.523 354.437 214.558C351.713 217.482 348.281 218.189 344.474 218.328L344.358 218.325C341.254 218.225 338.354 217.455 335.282 217.148C335.276 214.166 335.3 211.184 335.354 208.203C336.426 208.223 337.502 208.188 338.575 208.172L339.109 213.62C340.613 214.6 342.324 215.392 344.114 215.638C345.878 215.881 347.635 215.526 349.064 214.433C350.185 213.577 351.22 212.385 351.372 210.93C351.951 205.394 340.29 202.891 336.364 197.96C336.228 197.352 336.095 196.736 336.015 196.118C335.7 193.692 336.062 191.118 337.596 189.145C339.507 186.688 342.395 185.939 345.327 185.582Z"/><path d="M371.382 185.576C374.868 185.205 378.319 185.882 381.766 186.358L381.741 194.326L378.565 194.31C378.495 193.108 378.533 191.044 377.87 190.041C377.268 189.129 376.253 188.7 375.216 188.494C373.328 188.118 370.925 188.321 369.298 189.428C368.408 190.034 367.737 190.943 367.54 192.013C366.63 196.955 375.317 199.498 378.575 201.632C380.286 202.754 381.529 203.947 382.663 205.655C382.709 206.145 382.741 206.637 382.758 207.129C382.874 210.019 382.419 212.614 380.352 214.803C377.737 217.571 374.109 218.224 370.488 218.324L370.382 218.322C367.335 218.225 364.471 217.589 361.478 217.056L361.545 208.186L364.624 208.327C364.925 210.088 365.113 211.879 365.342 213.651C367.282 214.987 369.553 215.947 371.955 215.689C373.443 215.529 375.175 214.818 376.108 213.599C376.927 212.529 377.514 210.908 377.303 209.549C376.626 205.182 368.676 203.175 365.443 200.804C363.669 199.503 362.137 197.74 361.831 195.491C361.552 193.443 362.356 190.84 363.609 189.199C365.487 186.742 368.475 185.964 371.382 185.576Z"/><path d="M230.714 185.592C232.281 185.3 234.227 185.371 235.802 185.623C238.096 185.989 240.447 186.989 241.83 188.933C242.596 190.009 243.037 191.416 242.776 192.735C242.609 193.575 242.116 194.286 241.4 194.753C239.712 195.854 237.873 195.434 236.04 195.069C235.991 192.919 235.939 190.777 235.779 188.632C234.856 188.203 233.919 187.811 232.885 187.796C230.749 187.765 228.775 188.785 227.292 190.272C224.496 193.077 223.449 197.279 223.462 201.139C223.475 204.825 224.53 208.999 227.241 211.641C229.582 213.922 232.436 214.567 235.586 214.508C238.262 214.051 240.841 213.211 243.015 211.558L242.916 215.087C240.234 216.541 237.581 217.646 234.546 218.111C230.524 218.727 226.483 218.034 223.174 215.573C219.872 213.117 217.933 209.347 217.368 205.314C216.702 200.559 217.275 195.295 220.253 191.381C222.912 187.887 226.429 186.174 230.714 185.592Z"/><path d="M185.778 169.574C186.424 169.502 186.959 169.49 187.607 169.583C187.706 169.699 187.828 169.8 187.905 169.931C188.308 170.616 187.893 210.125 188.135 214.685C189.513 214.774 190.922 214.799 192.262 215.152C192.767 215.585 192.99 215.73 193.206 216.379L192.88 216.843C190.637 218.079 182.004 217.444 178.938 217.409C178.396 217.426 177.872 217.415 177.332 217.372L177.038 216.992C177.044 216.299 177.099 215.947 177.529 215.363C178.733 214.513 180.764 214.72 182.202 214.653L182.231 174.013C181.104 174.038 179.834 174.173 178.72 174.025C177.984 173.927 177.501 173.693 177.059 173.117L177.279 172.566C179.435 170.756 183.076 170.14 185.778 169.574Z"/><path d="M288.126 178.249C288.916 178.254 289.389 178.162 290.082 178.561C291.133 180.484 290.506 183.997 290.507 186.211L300.022 186.252C300.027 187.139 300.08 188.041 299.82 188.9C296.913 189.382 293.497 189.053 290.53 189.045C290.455 193.9 289.753 208.756 291.353 212.383C293.212 216.599 297.481 213.523 300.269 214.628C300.425 215.28 300.243 215.535 300.005 216.142C297.639 217.615 294.762 218.197 292.003 218.303C290.004 218.38 288.013 218.158 286.503 216.711C285.773 216.012 285.295 215.224 285.061 214.24C283.974 209.66 284.676 194.696 284.59 189.026C283.536 189.108 281.841 189.43 280.907 188.906C280.557 188.71 280.587 188.576 280.484 188.211C281.336 186.512 283.368 185.86 284.987 185.084C285.942 182.815 286.747 180.293 288.126 178.249Z"/><path d="M206.155 185.304C206.592 185.231 206.929 185.238 207.364 185.314C208.196 186.686 207.718 211.049 207.757 214.722C208.904 214.756 211.327 214.567 212.173 215.392C212.215 216.033 212.338 216.716 211.975 217.284C208.825 218.008 202.333 217.434 198.812 217.392C198.088 217.373 197.673 217.523 197.153 216.995C197.123 216.299 197.248 215.973 197.586 215.388C198.632 214.531 200.419 214.768 201.725 214.733C201.81 206.445 201.826 198.156 201.773 189.868C200.742 189.873 199.3 190.039 198.323 189.738C197.704 189.547 197.397 189.399 197.115 188.82C197.172 188.685 197.234 188.562 197.324 188.445C198.669 186.689 204.029 185.694 206.155 185.304Z"/><path d="M167.269 169.763C168.081 169.684 168.939 169.613 169.736 169.837C170.435 170.034 171.041 170.645 171.383 171.271C171.673 171.801 171.697 172.403 171.528 172.975C170.728 175.689 163.37 179.483 160.792 180.935C159.567 181.439 157.956 181.598 156.645 181.881C159.914 177.766 163.238 173.156 167.269 169.763Z"/><path d="M203.846 171.556C205.85 170.88 208.028 171.917 208.766 173.899C209.503 175.881 208.534 178.09 206.576 178.889C205.254 179.428 203.744 179.205 202.635 178.307C201.526 177.408 200.993 175.978 201.245 174.573C201.497 173.168 202.494 172.012 203.846 171.556Z"/></svg>